<svg xmlns="http://www.w3.org/2000/svg" viewBox="0 0 218.29 86"><defs><style>.cls-1,.cls-3{fill:#fff;}.cls-2,.cls-4{fill:none;}.cls-2,.cls-3,.cls-4{stroke:#fff;stroke-miterlimit:10;stroke-width:5px;}.cls-2{stroke-linecap:round;}</style></defs><title>Ativo 15novos</title><g id="Camada_2" data-name="Camada 2"><g id="Camada_1-2" data-name="Camada 1"><path class="cls-1" d="M51.82,20.68a63.28,63.28,0,0,0-9.72-4.32,28.61,28.61,0,0,0-9.26-1.7q-5.34,0-8.41,2.16a7.42,7.42,0,0,0-3.07,6.48,7.28,7.28,0,0,0,2.33,5.28,22.36,22.36,0,0,0,6,4.15A80.05,80.05,0,0,0,37.39,36a63.84,63.84,0,0,1,7.21,3.24A26.79,26.79,0,0,1,51,43.92a20.48,20.48,0,0,1,4.55,6.93A27,27,0,0,1,57.27,61,22.5,22.5,0,0,1,54,72.84a24.08,24.08,0,0,1-9.66,8.81Q37.95,85,28.64,85A51.12,51.12,0,0,1,9.2,81.08,49.68,49.68,0,0,1,0,76L7.27,63.18A40,40,0,0,0,13.69,67a39.06,39.06,0,0,0,7,2.56,26.35,26.35,0,0,0,6.48.9,21.67,21.67,0,0,0,6-.85,11,11,0,0,0,5-2.9,7.81,7.81,0,0,0,2-5.68,7.1,7.1,0,0,0-1.64-4.54A16.79,16.79,0,0,0,34,52.73a36.1,36.1,0,0,0-6.08-3Q24.1,48.3,20,46.36a40.82,40.82,0,0,1-7.67-4.71,21.58,21.58,0,0,1-5.8-6.93A21.47,21.47,0,0,1,4.32,24.55,23.87,23.87,0,0,1,7.56,11.93,23,23,0,0,1,16.7,3.47,31.78,31.78,0,0,1,30.34,0Q40.45,0,46.76,2.39A57.19,57.19,0,0,1,58.07,8.07Z"/><path class="cls-1" d="M90,.45q10.34,0,17.5,3.47a25,25,0,0,1,10.91,9.77,28.74,28.74,0,0,1,3.75,15,35.75,35.75,0,0,1-1.54,10.28,27.48,27.48,0,0,1-4.88,9.38,24,24,0,0,1-9,6.76A33.36,33.36,0,0,1,93,57.61H81.14V84.09H64.66V.45Zm2.84,41.14a13.3,13.3,0,0,0,6.25-1.31A11,11,0,0,0,103,37a13.72,13.72,0,0,0,2-4.15,14,14,0,0,0,.62-3.75,18.63,18.63,0,0,0-.4-3.35,13.5,13.5,0,0,0-1.64-4.26,10.22,10.22,0,0,0-3.81-3.64A13.8,13.8,0,0,0,93,16.36H81.14V41.59Z"/><path class="cls-1" d="M100.28,77.88a4.26,4.26,0,0,1,3-1.26,4.12,4.12,0,0,1,2.84,1.26,4,4,0,0,1,1.34,3.1,3.93,3.93,0,0,1-1.34,3.14,4.31,4.31,0,0,1-2.84,1.16,4.47,4.47,0,0,1-3-1.16A4,4,0,0,1,98.94,81,4.08,4.08,0,0,1,100.28,77.88Z"/><path class="cls-1" d="M134.78,83a13.35,13.35,0,0,1-4.33,2.21,16.51,16.51,0,0,1-5.11.84,17.43,17.43,0,0,1-7.79-1.64,12.11,12.11,0,0,1-5.14-4.72,14.39,14.39,0,0,1-1.82-7.44,13.53,13.53,0,0,1,2-7.44,13,13,0,0,1,5.17-4.69,14.78,14.78,0,0,1,6.72-1.61,17.63,17.63,0,0,1,6.12,1A14.53,14.53,0,0,1,135,61.93L131,67.3a12.07,12.07,0,0,0-2.3-1.34,8,8,0,0,0-3.44-.69,5.81,5.81,0,0,0-3.16.9,6.32,6.32,0,0,0-2.27,2.45A7.4,7.4,0,0,0,119,72.2a7.07,7.07,0,0,0,.9,3.52,6.51,6.51,0,0,0,2.48,2.54,7.22,7.22,0,0,0,3.73.93,8,8,0,0,0,2.54-.39,6,6,0,0,0,2-1.1Z"/><path class="cls-1" d="M139.2,71.9a13.8,13.8,0,0,1,1.88-7.17,13.31,13.31,0,0,1,5.29-5,16.28,16.28,0,0,1,7.83-1.83A15.71,15.71,0,0,1,162,59.75a12.67,12.67,0,0,1,5,5,14.54,14.54,0,0,1,1.76,7.17A14.71,14.71,0,0,1,167,79.1a12.91,12.91,0,0,1-5,5.05A15.86,15.86,0,0,1,154.08,86a17.13,17.13,0,0,1-7.68-1.67,12.63,12.63,0,0,1-5.29-4.84A14.45,14.45,0,0,1,139.2,71.9Zm8.43.06a8,8,0,0,0,.83,3.68,6.74,6.74,0,0,0,2.27,2.59,5.68,5.68,0,0,0,3.23,1,6,6,0,0,0,3.4-1,6.22,6.22,0,0,0,2.21-2.59,8.48,8.48,0,0,0,.78-3.68,8.39,8.39,0,0,0-.78-3.7,6.29,6.29,0,0,0-2.21-2.57,6,6,0,0,0-3.4-1,5.68,5.68,0,0,0-3.23,1,6.82,6.82,0,0,0-2.27,2.57A7.88,7.88,0,0,0,147.63,72Z"/><path class="cls-1" d="M182.93,59.18l.66,4.6-.12-.36a11.75,11.75,0,0,1,3.88-4.09A10.3,10.3,0,0,1,193,57.86a11,11,0,0,1,3.79.6,7.47,7.47,0,0,1,2.78,1.76,6.27,6.27,0,0,1,1.55,3l-.3.06a13.85,13.85,0,0,1,4-3.94,9.08,9.08,0,0,1,4.93-1.5A8.62,8.62,0,0,1,215.93,60a7.62,7.62,0,0,1,2.36,5.65V85.28H210V69.15a7.82,7.82,0,0,0-.54-2.83,2.32,2.32,0,0,0-2.21-1.23,4.65,4.65,0,0,0-3.43,1.41,8.48,8.48,0,0,0-2.09,3.58,14.86,14.86,0,0,0-.69,4.51V85.28h-8.36V69.15a6.65,6.65,0,0,0-.63-2.83,2.55,2.55,0,0,0-2.3-1.23,4.42,4.42,0,0,0-3.32,1.41,9.07,9.07,0,0,0-2,3.55,14.37,14.37,0,0,0-.68,4.42V85.28h-8.37V59.18Z"/><line class="cls-2" x1="133.2" y1="47.5" x2="207.43" y2="47.5"/><path class="cls-3" d="M138.9,5h52.87a0,0,0,0,1,0,0V31.7A6.35,6.35,0,0,1,185.42,38H145.25a6.35,6.35,0,0,1-6.35-6.35V5A0,0,0,0,1,138.9,5Z"/><rect class="cls-4" x="172.84" y="11.5" width="32.68" height="20.05" rx="3.6"/></g></g></svg>