<svg xmlns="http://www.w3.org/2000/svg" viewBox="0 0 246.76 132.53"><title>Ativo 13novos</title><g id="Camada_2" data-name="Camada 2"><g id="Camada_1-2" data-name="Camada 1"><path d="M121.34,123.36a4.49,4.49,0,0,1,3.25,1.33,4.6,4.6,0,1,1-6.5,0A4.47,4.47,0,0,1,121.34,123.36Z"/><path d="M160.76,106.28l-6.66,3.66a11.43,11.43,0,0,0-3.71-2.72,11.09,11.09,0,0,0-4.3-.76,10,10,0,0,0-7.25,2.67,9.13,9.13,0,0,0-2.78,6.86,8.81,8.81,0,0,0,2.67,6.64,9.67,9.67,0,0,0,7,2.58,10.19,10.19,0,0,0,8.36-3.66l6.31,4.31q-5.13,6.67-14.47,6.67-8.41,0-13.17-5a16.57,16.57,0,0,1,4-26.31A19.36,19.36,0,0,1,146.05,99a18.8,18.8,0,0,1,8.53,1.89A16.18,16.18,0,0,1,160.76,106.28Z"/><path d="M178.74,99a16.93,16.93,0,0,1,8.48,2.25,16.5,16.5,0,0,1,8.42,14.47,16.69,16.69,0,0,1-2.24,8.44,16.16,16.16,0,0,1-6.11,6.14,16.89,16.89,0,0,1-8.52,2.21,15.9,15.9,0,0,1-11.71-4.88A16.78,16.78,0,0,1,178.74,99Zm.13,7.53a8.25,8.25,0,0,0-6.21,2.59,9.22,9.22,0,0,0-2.48,6.63,9.35,9.35,0,0,0,2.46,6.74,8.18,8.18,0,0,0,6.2,2.58,8.27,8.27,0,0,0,6.25-2.61,10.27,10.27,0,0,0,0-13.37A8.31,8.31,0,0,0,178.87,106.55Z"/><path d="M197.92,99.84h8v3.66a13,13,0,0,1,10-4.48,10.15,10.15,0,0,1,5.4,1.46,10.62,10.62,0,0,1,3.87,4.28,13,13,0,0,1,4.67-4.28A12.74,12.74,0,0,1,235.94,99a11.18,11.18,0,0,1,6,1.58,9.16,9.16,0,0,1,3.71,4.13q1.13,2.55,1.13,8.29v18.69H238.7V115.54q0-5.42-1.35-7.34a4.61,4.61,0,0,0-4-1.92,6.16,6.16,0,0,0-3.68,1.17,6.88,6.88,0,0,0-2.41,3.24,20,20,0,0,0-.8,6.64v14.38h-8V116.27a21.69,21.69,0,0,0-.63-6.19,5.67,5.67,0,0,0-1.9-2.86,4.94,4.94,0,0,0-3.05-.94,6,6,0,0,0-3.63,1.19,7.08,7.08,0,0,0-2.44,3.32,20.61,20.61,0,0,0-.8,6.74v14.18h-8Z"/></g><g id="Camada_2-2" data-name="Camada 2"><path d="M79,131.84V0h26a45.92,45.92,0,0,1,46,46V74.62L111,94.6v37.24Zm32-70.63,8-4V46a14,14,0,0,0-8-12.62Z"/><path d="M0,131.84v-32H26a14,14,0,0,0,12.64-8H0V46A45.93,45.93,0,0,1,46,0h26V52H40V33.33A14,14,0,0,0,32,46v14h40v36c0,1.1,0,2.21-.15,3.31a34.6,34.6,0,0,1-.8,4.91,34,34,0,0,1-1.11,3.8,36,36,0,0,1-29.33,23.66,37.36,37.36,0,0,1-4.57.28Z"/></g></g></svg>