<svg width="42" height="42" viewBox="0 0 42 42" fill="none" xmlns="http://www.w3.org/2000/svg">
<path d="M35.4375 7.875H28.875V6.5625C28.875 5.51821 28.4602 4.51669 27.7217 3.77827C26.9833 3.03984 25.9818 2.625 24.9375 2.625H17.0625C16.0182 2.625 15.0167 3.03984 14.2783 3.77827C13.5398 4.51669 13.125 5.51821 13.125 6.5625V7.875H6.5625C6.2144 7.875 5.88056 8.01328 5.63442 8.25942C5.38828 8.50556 5.25 8.8394 5.25 9.1875C5.25 9.5356 5.38828 9.86944 5.63442 10.1156C5.88056 10.3617 6.2144 10.5 6.5625 10.5H7.875V34.125C7.875 34.8212 8.15156 35.4889 8.64384 35.9812C9.13613 36.4734 9.80381 36.75 10.5 36.75H31.5C32.1962 36.75 32.8639 36.4734 33.3562 35.9812C33.8484 35.4889 34.125 34.8212 34.125 34.125V10.5H35.4375C35.7856 10.5 36.1194 10.3617 36.3656 10.1156C36.6117 9.86944 36.75 9.5356 36.75 9.1875C36.75 8.8394 36.6117 8.50556 36.3656 8.25942C36.1194 8.01328 35.7856 7.875 35.4375 7.875ZM15.75 6.5625C15.75 6.2144 15.8883 5.88056 16.1344 5.63442C16.3806 5.38828 16.7144 5.25 17.0625 5.25H24.9375C25.2856 5.25 25.6194 5.38828 25.8656 5.63442C26.1117 5.88056 26.25 6.2144 26.25 6.5625V7.875H15.75V6.5625ZM31.5 34.125H10.5V10.5H31.5V34.125ZM18.375 17.0625V27.5625C18.375 27.9106 18.2367 28.2444 17.9906 28.4906C17.7444 28.7367 17.4106 28.875 17.0625 28.875C16.7144 28.875 16.3806 28.7367 16.1344 28.4906C15.8883 28.2444 15.75 27.9106 15.75 27.5625V17.0625C15.75 16.7144 15.8883 16.3806 16.1344 16.1344C16.3806 15.8883 16.7144 15.75 17.0625 15.75C17.4106 15.75 17.7444 15.8883 17.9906 16.1344C18.2367 16.3806 18.375 16.7144 18.375 17.0625ZM26.25 17.0625V27.5625C26.25 27.9106 26.1117 28.2444 25.8656 28.4906C25.6194 28.7367 25.2856 28.875 24.9375 28.875C24.5894 28.875 24.2556 28.7367 24.0094 28.4906C23.7633 28.2444 23.625 27.9106 23.625 27.5625V17.0625C23.625 16.7144 23.7633 16.3806 24.0094 16.1344C24.2556 15.8883 24.5894 15.75 24.9375 15.75C25.2856 15.75 25.6194 15.8883 25.8656 16.1344C26.1117 16.3806 26.25 16.7144 26.25 17.0625Z" fill="black"/>
</svg>
