<svg width="42" height="42" viewBox="0 0 42 42" fill="none" xmlns="http://www.w3.org/2000/svg">
<path d="M36.7501 21C36.7501 21.3481 36.6118 21.6819 36.3656 21.9281C36.1195 22.1742 35.7857 22.3125 35.4376 22.3125H9.7306L19.3037 31.8839C19.4256 32.0059 19.5223 32.1506 19.5883 32.31C19.6543 32.4693 19.6883 32.64 19.6883 32.8125C19.6883 32.985 19.6543 33.1557 19.5883 33.3151C19.5223 33.4744 19.4256 33.6192 19.3037 33.7411C19.1817 33.863 19.0369 33.9598 18.8776 34.0258C18.7183 34.0918 18.5475 34.1257 18.3751 34.1257C18.2026 34.1257 18.0318 34.0918 17.8725 34.0258C17.7132 33.9598 17.5684 33.863 17.4465 33.7411L5.63396 21.9286C5.51193 21.8067 5.41512 21.6619 5.34907 21.5026C5.28302 21.3433 5.24902 21.1725 5.24902 21C5.24902 20.8275 5.28302 20.6567 5.34907 20.4974C5.41512 20.3381 5.51193 20.1933 5.63396 20.0714L17.4465 8.25891C17.6927 8.01263 18.0268 7.87427 18.3751 7.87427C18.7233 7.87427 19.0574 8.01263 19.3037 8.25891C19.5499 8.50519 19.6883 8.83921 19.6883 9.1875C19.6883 9.53579 19.5499 9.86982 19.3037 10.1161L9.7306 19.6875H35.4376C35.7857 19.6875 36.1195 19.8258 36.3656 20.0719C36.6118 20.3181 36.7501 20.6519 36.7501 21Z" fill="black"/>
</svg>
