<svg xmlns="http://www.w3.org/2000/svg" viewBox="0 0 150.89 131.85"><title>Ativo 12novos</title><g id="Camada_2" data-name="Camada 2"><g id="Camada_2-2" data-name="Camada 2"><polygon points="98.77 52.76 91.2 53.75 91.2 48.4 98.77 47.36 98.77 52.76"/><polygon points="98.77 60.08 91.2 61.06 91.2 55.77 98.77 54.78 98.77 60.08"/><polygon points="98.77 67.4 91.2 68.38 91.2 63.09 98.77 62.1 98.77 67.4"/><polygon points="98.77 74.71 91.2 75.7 91.2 70.4 98.77 69.42 98.77 74.71"/><path d="M143.17,69.38V61.29H124.39v8.15l-8.59,2.89v9.13H103V41.24L86.77,43.05V81.46H79v50.39h32V94.6l39.95-20V69.38ZM100.76,85.65h-2V76.74l-7.56,1v3h-2V46.66l11.56-1.6ZM127.85,64h2V69.5h-2ZM130,77.57h-2V72h2ZM132.43,64h2V69.5h-2Zm2.18,13.6h-2V72h2ZM137,64h2V69.5h-2Zm2.15,13.6h-2V72h2Z"/><polygon points="98.77 47.36 98.77 52.76 91.2 53.75 91.2 48.4 98.77 47.36"/><polygon points="91.2 55.77 98.77 54.78 98.77 60.08 91.2 61.06 91.2 55.77"/><polygon points="91.2 63.09 98.77 62.1 98.77 67.4 91.2 68.38 91.2 63.09"/><polygon points="91.2 70.4 98.77 69.42 98.77 74.71 91.2 75.7 91.2 70.4"/><polygon points="98.77 62.1 98.77 67.4 91.2 68.38 91.2 63.09 98.77 62.1"/><polygon points="98.77 54.78 98.77 60.08 91.2 61.06 91.2 55.77 98.77 54.78"/><polygon points="98.77 69.42 98.77 74.71 91.2 75.7 91.2 70.4 98.77 69.42"/><rect x="128.85" y="55.93" width="9.52" height="3.36"/><polygon points="98.77 47.36 98.77 52.76 91.2 53.75 91.2 48.4 98.77 47.36"/><path d="M144.74,23a45.92,45.92,0,0,0-39.8-23H79V79.46h5.81V41.27L105,39V79.46h8.8V70.89L122.39,68V59.29h4.46V53.93h5.76V48h2v6h5.77v5.36h4.79v8.09h5.72V46A45.89,45.89,0,0,0,144.74,23ZM118.91,57.23l-8,4V33.33a14,14,0,0,1,8,12.63Z"/><path d="M39.94,52V33.33A14,14,0,0,0,32,46v14h40V79.46H59.21V65.17L37.89,70v9.5H26V51.38h-8.9V48.61l3.53-1.44-.75-1.85-2.78,1.14v-1.2l2.15-.88-.76-1.85-1.39.57v-3h-2v3.8L13,44.79l.75,1.86,1.39-.57v1.19L11.6,48.71l.75,1.85,2.77-1.13v2H6.25V79.46H0V46A45.94,45.94,0,0,1,45.94,0h26V52Z"/><path d="M57.21,81.46V67.67L39.89,71.56v9.9H24V53.38H8.25V81.46H0V91.9H38.61a14,14,0,0,1-12.64,8H0v32H36a37.39,37.39,0,0,0,4.57-.29,34.94,34.94,0,0,0,7.41-1.77A35.71,35.71,0,0,0,69.85,107.9,33.37,33.37,0,0,0,71,104.1a34.55,34.55,0,0,0,.79-4.91c.1-1.1.16-2.21.16-3.3V81.46ZM19.72,57.23h2v6.12h-2Zm-4.6,0h2v6.12h-2Zm-4.59,0h2v6.12h-2Zm2,29.39h-2V80.5h2Zm4.59,0h-2V80.5h2Zm4.6,0h-2V80.5h2Zm1.13-8H9.42v-2H22.83ZM10.51,75.1V69h2V75.1Zm4.59,0V69h2V75.1Zm4.6,0V69h2V75.1Zm3.15-8.17H9.44v-2H22.85ZM44.23,87.16h-2V81.73h2Zm0-8.41h-2V73.32h2Zm5.6,7.53h-2V80.84h2Zm0-8.42h-2V72.43h2Zm5.59,7.53h-2V80h2Zm0-8.41h-2V71.55h2Z"/></g></g></svg>